<?xml version="1.0" encoding="UTF-8" standalone="no"?>
<svg
   width="800"
   height="600"
   version="1.1"
   viewBox="0 0 800 599.99998"
   id="svg8"
   sodipodi:docname="logo3.svg"
   inkscape:version="1.4.4 (dcaf3e7d9e, 2026-05-05)"
   xmlns:inkscape="http://www.inkscape.org/namespaces/inkscape"
   xmlns:sodipodi="http://sodipodi.sourceforge.net/DTD/sodipodi-0.dtd"
   xmlns="http://www.w3.org/2000/svg"
   xmlns:svg="http://www.w3.org/2000/svg">
  <defs
     id="defs8" />
  <sodipodi:namedview
     id="namedview8"
     pagecolor="#ffffff"
     bordercolor="#000000"
     borderopacity="0.25"
     inkscape:showpageshadow="2"
     inkscape:pageopacity="0.0"
     inkscape:pagecheckerboard="true"
     inkscape:deskcolor="#d1d1d1"
     inkscape:zoom="0.368"
     inkscape:cx="250"
     inkscape:cy="137.22826"
     inkscape:window-width="1920"
     inkscape:window-height="1080"
     inkscape:window-x="0"
     inkscape:window-y="0"
     inkscape:window-maximized="1"
     inkscape:current-layer="svg8" />
  <g
     id="g8"
     transform="translate(59.782609,21.73913)">
    <path
       d="m 620.93,15.292 -124.9,25.191 33.438,27.102 -31.705,30.389 0.6719,-0.002 -81.146,83.41 -40.086,-30.691 -46.594,46.408 -0.014,-0.004 -48.064,48.572 c 0.1944,0.11992 0.3849,0.23743 0.5703,0.35351 a 28.252,28.991 0 0 0 -12.789,-3.1387 28.252,28.991 0 0 0 -28.252,28.99 28.252,28.991 0 0 0 28.252,28.99 28.252,28.991 0 0 0 27.539,-22.51 h 48.527 a 13.163,12.813 0 0 0 12.008,7.5645 13.163,12.813 0 0 0 13.162,-12.812 13.163,12.813 0 0 0 -13.162,-12.812 13.163,12.813 0 0 0 -11.512,6.5996 h -48.728 a 28.252,28.991 0 0 0 -4.209,-10.92 c 0.091,0.11515 0.1842,0.23248 0.2793,0.35157 l 15.566,-15.025 46.603,-0.28907 a 11.898,11.608 0 0 0 11.166,7.5996 11.898,11.608 0 0 0 11.898,-11.607 11.898,11.608 0 0 0 -11.898,-11.607 11.898,11.608 0 0 0 -11.287,7.9356 l -15.908,-0.0801 17.131,-14.506 12.617,-11.018 58.908,47.547 139.81,-145.24 31.881,30.689 z M 364.07,36.056 323.441,79.208 v 0.80078 h -24.053 l -2.1055,0.043 42.99,-43.211 -1.1758,0.004 0.5156,-0.52344 -199.52,0.31055 -81.945,105.06 h 156.52 v 122.3 h 14.344 c 3.0674,-15.52 15.083,-27.872 30.768,-31.631 h -1.6309 v -110.56 h -0.291 l 21.885,-24.002 h -112.08 l -18.477,0.20703 10.883,-17.701 h 0.068 v -0.0859 h 123.16 l 13.736,0.0859 0.086,-0.0859 h 124.53 l 0.9512,-0.6875 42.115,-42.314 z m -57.43,61.738 -30.209,28.482 v 30.342 h -0.2911 v 75.088 c 0.8699,0.1791 1.7268,0.38354 2.5724,0.61133 l 40.355,-41.035 -0.5606,-50.623 112.88,0.44922 42.469,-43.035 c 0,0 -104.49,-0.27929 -167.22,-0.2793 z m -35.603,158 a 16.21,15.86 0 0 1 16.209,15.859 16.21,15.86 0 0 1 -16.209,15.861 16.21,15.86 0 0 1 -16.209,-15.861 16.21,15.86 0 0 1 16.209,-15.859 z m -56.367,25.607 v 144.28 h 2.3848 l 41.066,-42.004 v -73.113 c -14.184,-4.0168 -25.104,-15.133 -28.65,-29.164 z m 104.24,6.6856 -10.027,0.10156 c -4.7706,12.795 -16.393,21.568 -31.684,23.814 l -1.4511,91.752 43.162,-42.49 z"
       fill="#008000"
       fill-opacity="0.55311"
       stroke-width="0"
       id="path1" />
    <path
       d="m 612.54,16.694 -124.9,25.191 33.438,27.102 -112.18,113.8 -40.086,-30.691 -46.594,46.408 -0.014,-0.004 -48.064,48.572 c 0.1944,0.11992 0.385,0.23743 0.5703,0.35351 -3.963,-2.0638 -8.3448,-3.1392 -12.789,-3.1387 -15.603,2.8e-4 -28.252,12.98 -28.252,28.99 2e-4,16.011 12.649,28.99 28.252,28.99 13.171,7.2e-4 24.595,-9.337 27.539,-22.51 h 48.527 c 2.1232,4.603 6.8242,7.5645 12.008,7.5645 7.2693,-2.9e-4 13.162,-5.7366 13.162,-12.812 0,-7.0754 -5.8928,-12.812 -13.162,-12.812 -4.7842,-5e-5 -9.1918,2.5268 -11.512,6.5996 h -48.728 c -0.6624,-3.8965 -2.0947,-7.6127 -4.209,-10.92 0.091,0.11513 0.1842,0.23247 0.2793,0.35156 l 15.566,-15.025 46.604,-0.28907 c 1.7218,4.5658 6.1794,7.5996 11.166,7.5996 6.5712,3.4e-4 11.898,-5.1966 11.898,-11.607 -10e-5,-6.4109 -5.3273,-11.608 -11.898,-11.607 -5.1207,-1.5e-4 -9.6671,3.1963 -11.287,7.9356 l -15.908,-0.0801 17.131,-14.506 12.617,-11.018 58.908,47.547 139.81,-145.24 31.881,30.689 z M 131.7,38.034 49.755,143.094 h 156.52 v 122.3 h 14.344 c 3.0673,-15.52 15.083,-27.872 30.768,-31.631 h -1.6309 v -110.56 h -0.291 l 23.486,-22.992 -113.69,-1.0098 -18.477,0.20703 10.883,-17.701 h 0.068 v -0.0859 h 123.16 c 0,0 6.5825,-0.0324 16.877,-0.0762 l 32.25,-30.252 13.6,-12.885 z m 231.13,0.41211 -8.5956,7.7305 -39.025,35.271 c 41.06,-0.14697 98.66,-0.27494 98.047,0.16797 l 0.9512,-0.6875 42.115,-42.314 z m -64.584,60.75 -30.209,28.482 v 30.342 h -0.291 v 75.088 c 0.8698,0.1791 1.7266,0.38354 2.5722,0.61133 l 40.356,-41.035 -0.5605,-50.623 112.88,0.44921 42.469,-43.035 c 0,0 -104.49,-0.2793 -167.22,-0.2793 z m -35.604,158 c 8.9521,3.4e-4 16.209,7.1007 16.209,15.859 10e-4,8.7594 -7.2562,15.861 -16.209,15.861 -8.9527,-3.4e-4 -16.21,-7.1019 -16.209,-15.861 1e-4,-8.7587 7.2569,-15.859 16.209,-15.859 z m -56.367,25.607 v 144.28 h 2.3847 l 41.066,-42.004 v -73.113 c -14.184,-4.0168 -25.104,-15.133 -28.65,-29.164 z m 104.24,6.6856 -10.027,0.10156 c -4.7706,12.795 -16.393,21.568 -31.684,23.814 l -1.4512,91.752 43.162,-42.49 z"
       fill="#137df3"
       stroke="#046ada"
       id="path2" />
    <g
       fill="#046ada"
       id="g5">
      <path
         d="m 366.1,99.264 99.369,0.21246 -42.469,43.035 -56.442,-0.22461 z"
         stroke-width="0"
         id="path3" />
      <path
         d="m 526.25,101.43 86.29,-84.735 -20.231,125.43 -31.881,-30.689 -139.81,145.24 -23.914,-19.302 z"
         stroke="#046ada"
         stroke-width="3.7"
         id="path4" />
      <path
         d="m 268.36,341.96 42.163,-9.7625 v 30.47 l -43.162,42.49 z"
         stroke-width="0"
         id="path5" />
    </g>
    <g
       transform="matrix(0.77107,0,0,0.77107,-193.39,332.9)"
       stroke-width="0"
       id="g7">
      <path
         d="m 694.8,198.28 q -9.1419,0 -14.366,8.0971 -5.224,8.0101 -5.224,22.376 0,14.366 5.224,22.463 5.224,8.0101 14.366,8.0101 9.229,0 14.453,-8.0101 5.224,-8.0971 5.224,-22.463 0,-14.366 -5.224,-22.376 Q 704.029,198.28 694.8,198.28 Z m -45.1,30.473 q 0,-23.595 12.189,-37.351 12.276,-13.843 32.911,-13.843 20.722,0 32.911,13.843 12.276,13.756 12.276,37.351 0,23.595 -12.276,37.438 -12.189,13.756 -32.911,13.756 -20.635,0 -32.911,-13.756 Q 649.7,252.348 649.7,228.753 Z m 172.83,0.17413 q 0,-14.105 -4.7016,-22.115 -4.7016,-8.0101 -12.973,-8.0101 -8.2713,0 -13.06,8.0101 -4.7886,8.0101 -4.7886,22.115 0,14.1049 4.7886,22.115 4.7886,8.0101 13.06,8.0101 8.2713,0 12.973,-8.0101 4.7016,-8.0101 4.7016,-22.115 z m -35.523,-35.175 q 4.7016,-8.0971 10.883,-12.102 6.2688,-4.0921 14.105,-4.0921 17.326,0 26.642,13.234 9.4031,13.234 9.4031,37.961 0,24.378 -9.229,37.787 -9.229,13.408 -25.946,13.408 -8.7937,0 -15.324,-4.2662 -6.53,-4.2662 -10.535,-12.712 v 14.453 h -25.423 v -135.47 h 25.423 z m 130.77,94.205 q -5.1369,13.756 -12.363,20.025 -7.1394,6.3558 -17.413,6.3558 h -21.07 v -19.416 h 10.361 q 7.8359,0 11.493,-2.699 3.6568,-2.612 7.4006,-12.276 l 1.9154,-5.224 -37.09,-94.815 h 26.816 l 22.289,63.297 21.331,-63.297 h 26.816 z m 105.52,-135.74 v 27.687 h 33.346 v 19.59 h -33.346 v 46.145 q 0,6.53 3.1344,9.4031 3.2214,2.7861 10.622,2.7861 h 19.59 v 19.59 h -21.418 q -21.941,0 -29.689,-6.9653 -7.7489,-7.0523 -7.7489,-26.033 v -44.926 h -24.901 v -19.59 h 24.901 v -27.687 z m 121.63,65.561 q -0.1741,-10.1 -5.2239,-15.237 -4.9628,-5.224 -14.714,-5.224 -8.7936,0 -14.018,5.3981 -5.2239,5.311 -6.1817,15.149 z m 21.592,54.852 q -8.8808,3.6568 -18.11,5.4852 -9.229,1.8284 -19.503,1.8284 -24.466,0 -37.438,-13.06 -12.886,-13.147 -12.886,-37.787 0,-23.856 12.45,-37.7 12.45,-13.844 33.956,-13.843 21.679,0 33.608,12.886 12.015,12.799 12.015,36.132 v 10.361 h -66.083 q 0.087,11.493 6.7912,17.152 6.7041,5.6593 20.025,5.6593 8.7937,0 17.326,-2.5249 8.5324,-2.5249 17.848,-8.0101 z"
         fill="#4f5d6a"
         id="path6" />
      <path
         d="M 278.28,277.42 H 252.596 V 169.89 h -32.998 v -22.463 h 91.68 V 169.89 H 278.28 Z m 115.19,-59.64 q -0.17413,-10.1 -5.224,-15.237 -4.9628,-5.224 -14.714,-5.224 -8.7937,0 -14.018,5.3981 -5.224,5.311 -6.1817,15.149 z m 21.592,54.852 q -8.8807,3.6568 -18.11,5.4852 -9.229,1.8284 -19.503,1.8284 -24.466,0 -37.438,-13.06 -12.886,-13.147 -12.886,-37.787 0,-23.856 12.45,-37.7 12.45,-13.843 33.956,-13.843 21.679,0 33.607,12.886 12.015,12.799 12.015,36.132 v 10.361 H 353.07 q 0.0871,11.493 6.7911,17.152 6.7041,5.6593 20.025,5.6593 8.7937,0 17.326,-2.5249 8.5323,-2.5249 17.849,-8.0101 z m 103.78,-0.17413 q -6.4429,3.7438 -13.843,5.5722 -7.4006,1.9154 -15.933,1.9154 -22.55,0 -35.262,-13.582 -12.712,-13.582 -12.712,-37.612 0,-24.117 12.799,-37.7 12.799,-13.669 35.349,-13.669 7.8359,0 15.062,1.8284 7.3135,1.8284 14.54,5.6593 v 23.334 q -5.5722,-4.7886 -12.276,-7.3135 -6.617,-2.612 -13.756,-2.612 -12.45,0 -19.154,7.923 -6.704,7.923 -6.7041,22.55 0,14.627 6.7041,22.463 6.7041,7.8359 19.154,7.8359 7.4006,0 13.843,-2.4378 6.4429,-2.5249 12.189,-7.5747 z m 108.22,-58.334 v 63.297 h -25.336 v -59.379 q 0,-10.622 -3.0473,-15.149 -2.9602,-4.6145 -9.7514,-4.6145 -6.8782,0 -10.883,6.1817 -3.918,6.1817 -3.918,17.152 v 55.809 h -25.336 v -97.514 h 25.336 v 14.627 q 2.699,-8.0971 9.229,-12.537 6.53,-4.4404 15.759,-4.4404 13.843,0 20.896,9.229 7.0523,9.1419 7.0523,27.339 z"
         fill="#0c76eb"
         id="path7" />
    </g>
  </g>
</svg>
