<svg xmlns="http://www.w3.org/2000/svg" width="800" height="600" viewBox="0 0 800 600"><path fill="green" fill-opacity=".553" d="m680.713 37.031-124.9 25.191 33.438 27.102-31.705 30.39.672-.003-81.146 83.41-40.086-30.69-46.594 46.407-.014-.004-48.064 48.572.57.354a28.252 28.991 0 0 0-12.79-3.14 28.252 28.991 0 0 0-28.251 28.99 28.252 28.991 0 0 0 28.252 28.99 28.252 28.991 0 0 0 27.539-22.51h48.527a13.163 12.813 0 0 0 12.008 7.565 13.163 12.813 0 0 0 13.162-12.812 13.163 12.813 0 0 0-13.162-12.812 13.163 12.813 0 0 0-11.512 6.6h-48.728a28.252 28.991 0 0 0-4.21-10.92l.28.352 15.566-15.025 46.603-.29a11.898 11.608 0 0 0 11.166 7.6 11.898 11.608 0 0 0 11.898-11.607 11.898 11.608 0 0 0-11.898-11.607 11.898 11.608 0 0 0-11.287 7.936l-15.908-.08 17.131-14.506 12.617-11.018 58.908 47.547 139.81-145.24 31.881 30.689zm-256.86 20.764-40.63 43.152v.8h-24.052l-2.106.044 42.99-43.211-1.176.004.516-.524-199.52.311-81.945 105.06h156.52v122.3h14.344c3.067-15.52 15.083-27.872 30.768-31.631h-1.631V143.54h-.291l21.885-24.002h-112.08l-18.477.207 10.883-17.7.068-.001v-.086h123.16l13.736.086.086-.086h124.53l.951-.687 42.115-42.314zm-57.43 61.738-30.21 28.482v30.342h-.29v75.088q1.304.27 2.572.611l40.355-41.035-.56-50.623 112.88.45 42.468-43.035s-104.49-.28-167.22-.28zm-35.603 158a16.21 15.86 0 0 1 16.209 15.86 16.21 15.86 0 0 1-16.21 15.86 16.21 15.86 0 0 1-16.208-15.86 16.21 15.86 0 0 1 16.209-15.86m-56.367 25.607v144.28h2.384l41.066-42.004v-73.113c-14.184-4.017-25.104-15.133-28.65-29.164zm104.24 6.686-10.027.101c-4.771 12.795-16.393 21.568-31.684 23.814l-1.451 91.752 43.162-42.49z"/><path fill="#137df3" stroke="#046ada" d="m672.323 38.433-124.9 25.191 33.438 27.102-112.18 113.8-40.086-30.69L382 220.242l-.014-.004-48.064 48.572.57.354a27.7 27.7 0 0 0-12.79-3.14c-15.602.001-28.251 12.98-28.251 28.99 0 16.012 12.649 28.99 28.252 28.99 13.17.002 24.595-9.336 27.539-22.51h48.527c2.123 4.604 6.824 7.565 12.008 7.565 7.27 0 13.162-5.736 13.162-12.812s-5.893-12.812-13.162-12.812c-4.784 0-9.192 2.527-11.512 6.6h-48.728a29.4 29.4 0 0 0-4.21-10.92l.28.352 15.566-15.025 46.604-.29c1.722 4.566 6.18 7.6 11.166 7.6 6.571 0 11.898-5.196 11.898-11.607s-5.327-11.608-11.898-11.607c-5.12 0-9.667 3.196-11.287 7.936l-15.908-.08 17.131-14.506 12.617-11.018 58.908 47.547 139.81-145.24 31.881 30.689zm-480.84 21.34-81.945 105.06h156.52v122.3h14.344c3.067-15.52 15.083-27.872 30.768-31.63h-1.631v-110.56h-.291l23.486-22.993-113.69-1.01-18.477.207 10.883-17.7h.068v-.087h123.16s6.582-.032 16.877-.076l32.25-30.252 13.6-12.885zm231.13.412-8.596 7.73-39.025 35.272c41.06-.147 98.66-.275 98.047.168l.951-.688 42.115-42.314zm-64.584 60.75-30.21 28.482v30.342h-.29v75.088a44 44 0 0 1 2.572.612l40.356-41.035-.56-50.623 112.88.449 42.468-43.035s-104.49-.28-167.22-.28zm-35.604 158c8.952 0 16.209 7.1 16.209 15.86s-7.257 15.86-16.21 15.86c-8.952 0-16.21-7.102-16.208-15.86 0-8.76 7.257-15.86 16.209-15.86zm-56.367 25.607v144.28h2.384l41.066-42.004v-73.113c-14.184-4.017-25.104-15.133-28.65-29.164zm104.24 6.686-10.027.101c-4.771 12.795-16.393 21.568-31.684 23.814l-1.452 91.752 43.162-42.49z"/><g fill="#046ada"><path d="m425.883 121.003 99.369.213-42.47 43.035-56.441-.225z"/><path stroke="#046ada" stroke-width="3.7" d="m586.033 123.17 86.29-84.736-20.231 125.43-31.881-30.689-139.81 145.24-23.914-19.302z"/><path d="m328.143 363.7 42.163-9.763v30.47l-43.162 42.49z"/></g><g stroke-width="0"><path fill="#4f5d6a" d="M402.132 507.527q-7.049 0-11.077 6.243-4.028 6.177-4.028 17.254t4.028 17.32q4.028 6.177 11.077 6.177 7.116 0 11.144-6.177 4.028-6.243 4.028-17.32t-4.028-17.254q-4.028-6.243-11.144-6.243m-34.775 23.497q0-18.194 9.398-28.8 9.466-10.674 25.377-10.674 15.978 0 25.377 10.673 9.465 10.607 9.465 28.8t-9.465 28.868q-9.399 10.607-25.377 10.607-15.911 0-25.377-10.607-9.398-10.674-9.398-28.867m133.264.134q0-10.876-3.625-17.052t-10.004-6.177-10.07 6.177-3.692 17.052 3.692 17.052 10.07 6.177 10.004-6.177 3.625-17.052m-27.39-27.122q3.624-6.244 8.39-9.332 4.834-3.155 10.877-3.155 13.36 0 20.542 10.204 7.25 10.204 7.25 29.27 0 18.798-7.115 29.137-7.117 10.339-20.006 10.339-6.781 0-11.816-3.29t-8.124-9.802v11.145h-19.603V464.095h19.603zm100.832 72.638q-3.961 10.607-9.533 15.44-5.505 4.902-13.426 4.902h-16.247v-14.971h7.99q6.041 0 8.861-2.082 2.82-2.014 5.706-9.465l1.477-4.028-28.599-73.11h20.677l17.187 48.807 16.447-48.806h20.677zm81.363-104.665v21.349h25.712v15.105h-25.712v35.581q0 5.035 2.417 7.25 2.484 2.149 8.19 2.149h15.106v15.105h-16.515q-16.918 0-22.892-5.37-5.975-5.438-5.975-20.074v-34.641h-19.2v-15.105h19.2v-21.349zm93.785 50.552q-.134-7.787-4.028-11.748-3.826-4.029-11.345-4.029-6.78 0-10.809 4.163-4.028 4.095-4.766 11.68zm16.65 42.295q-6.848 2.82-13.965 4.23-7.116 1.41-15.038 1.41-18.865 0-28.867-10.07-9.936-10.138-9.936-29.137 0-18.395 9.6-29.07 9.6-10.674 26.182-10.674 16.716 0 25.914 9.936 9.265 9.87 9.265 27.86v7.99H718.06q.067 8.862 5.237 13.225 5.169 4.364 15.44 4.364 6.78 0 13.36-1.947t13.762-6.176z"/><path fill="#0c76eb" d="M80.966 568.55H61.162v-82.914H35.718v-17.32h70.692v17.32H80.966Zm88.82-45.987q-.135-7.788-4.029-11.749-3.826-4.028-11.345-4.028-6.78 0-10.809 4.162-4.028 4.095-4.766 11.681zm16.648 42.294q-6.847 2.82-13.964 4.23-7.116 1.41-15.038 1.41-18.865 0-28.867-10.07-9.936-10.138-9.936-29.137 0-18.394 9.6-29.07 9.6-10.673 26.182-10.673 16.716 0 25.914 9.936 9.264 9.869 9.264 27.86v7.99h-50.955q.067 8.861 5.237 13.225 5.169 4.363 15.44 4.363 6.78 0 13.36-1.946 6.579-1.947 13.763-6.177zm80.022-.134q-4.968 2.887-10.674 4.297-5.706 1.477-12.285 1.477-17.388 0-27.19-10.473t-9.802-29.001q0-18.596 9.87-29.07 9.868-10.54 27.256-10.54 6.042 0 11.614 1.41 5.639 1.41 11.211 4.364v17.992q-4.296-3.692-9.466-5.64-5.102-2.013-10.606-2.013-9.6 0-14.77 6.11-5.169 6.108-5.169 17.387t5.17 17.32q5.169 6.042 14.769 6.042 5.706 0 10.674-1.88 4.967-1.946 9.398-5.84zm83.445-44.98v48.807h-19.536v-45.785q0-8.19-2.35-11.681-2.282-3.558-7.518-3.558-5.304 0-8.392 4.766-3.02 4.767-3.02 13.226v43.032h-19.537v-75.19h19.536v11.279q2.081-6.244 7.116-9.667t12.152-3.424q10.674 0 16.112 7.116 5.438 7.049 5.438 21.08z"/></g></svg>